<svg width="44" height="44" viewBox="0 0 44 44" fill="none" xmlns="http://www.w3.org/2000/svg">
<rect x="0.5" y="0.5" width="43" height="43" rx="21.5" stroke="#FFFDFA" stroke-opacity="0.8"/>
<path d="M22 17.9412C21.1972 17.9412 20.4125 18.1792 19.745 18.6252C19.0776 19.0712 18.5573 19.7051 18.2501 20.4468C17.9429 21.1884 17.8626 22.0045 18.0192 22.7918C18.1758 23.5792 18.5623 24.3024 19.13 24.87C19.6976 25.4377 20.4208 25.8242 21.2082 25.9808C21.9955 26.1374 22.8116 26.0571 23.5532 25.7499C24.2949 25.4427 24.9288 24.9224 25.3748 24.255C25.8208 23.5875 26.0588 22.8028 26.0588 22C26.0574 20.924 25.6293 19.8924 24.8685 19.1315C24.1076 18.3707 23.076 17.9426 22 17.9412ZM22 25C21.4067 25 20.8266 24.8241 20.3333 24.4944C19.8399 24.1648 19.4554 23.6962 19.2284 23.1481C19.0013 22.5999 18.9419 21.9967 19.0576 21.4147C19.1734 20.8328 19.4591 20.2982 19.8787 19.8787C20.2982 19.4591 20.8328 19.1734 21.4147 19.0576C21.9967 18.9419 22.5999 19.0013 23.1481 19.2284C23.6962 19.4554 24.1648 19.8399 24.4944 20.3333C24.8241 20.8266 25 21.4067 25 22C25 22.7956 24.6839 23.5587 24.1213 24.1213C23.5587 24.6839 22.7956 25 22 25ZM26.2353 13H17.7647C16.5015 13.0014 15.2903 13.5038 14.3971 14.3971C13.5038 15.2903 13.0014 16.5015 13 17.7647V26.2353C13.0014 27.4985 13.5038 28.7097 14.3971 29.6029C15.2903 30.4962 16.5015 30.9986 17.7647 31H26.2353C27.4985 30.9986 28.7097 30.4962 29.6029 29.6029C30.4962 28.7097 30.9986 27.4985 31 26.2353V17.7647C30.9986 16.5015 30.4962 15.2903 29.6029 14.3971C28.7097 13.5038 27.4985 13.0014 26.2353 13ZM29.9412 26.2353C29.9412 27.2182 29.5507 28.1608 28.8557 28.8557C28.1608 29.5507 27.2182 29.9412 26.2353 29.9412H17.7647C16.7818 29.9412 15.8392 29.5507 15.1443 28.8557C14.4493 28.1608 14.0588 27.2182 14.0588 26.2353V17.7647C14.0588 16.7818 14.4493 15.8392 15.1443 15.1443C15.8392 14.4493 16.7818 14.0588 17.7647 14.0588H26.2353C27.2182 14.0588 28.1608 14.4493 28.8557 15.1443C29.5507 15.8392 29.9412 16.7818 29.9412 17.7647V26.2353ZM27.4706 17.4118C27.4706 17.5863 27.4188 17.7569 27.3219 17.902C27.2249 18.0471 27.0871 18.1602 26.9259 18.227C26.7647 18.2937 26.5873 18.3112 26.4161 18.2772C26.2449 18.2431 26.0877 18.1591 25.9643 18.0357C25.8409 17.9123 25.7569 17.7551 25.7228 17.5839C25.6888 17.4127 25.7063 17.2353 25.773 17.0741C25.8398 16.9129 25.9529 16.7751 26.098 16.6781C26.2431 16.5812 26.4137 16.5294 26.5882 16.5294C26.8223 16.5294 27.0467 16.6224 27.2122 16.7878C27.3776 16.9533 27.4706 17.1778 27.4706 17.4118Z" fill="#FFFDFA"/>
</svg>
