<svg width="157" height="40" viewBox="0 0 157 40" fill="none" xmlns="http://www.w3.org/2000/svg">
<g clip-path="url(#clip0_81_5851)">
<path d="M6.53832 8.36058C8.8428 8.65534 11.0669 9.75401 11.0669 12.6748C11.0669 17.2303 5.33248 17.3375 4.60898 17.3375H0V0.509138H5.09131C6.29715 0.509138 10.4774 0.696715 10.4774 4.0999C10.4774 6.75277 8.38941 7.87824 6.53832 8.36058ZM4.07305 0.937885H1.90254V8.28019H3.37634C6.51152 8.28019 8.44086 7.02074 8.44086 4.39466C8.44086 1.76858 6.6455 0.937885 4.07305 0.937885ZM3.37634 16.9087C6.46007 16.9087 9.03252 16.1316 9.03252 12.9696C9.03252 10.8259 8.14824 8.70893 4.07519 8.70893H1.90254V16.9087H3.37634ZM21.9452 0.937885H15.3265V8.33378H21.2217V8.76253H15.3265V16.9087H21.9452V17.3375H13.4271V0.509138H21.9484L21.9452 0.937885ZM37.1151 17.3375L34.1943 10.5847H27.656L24.628 17.3375H24.0385L31.6755 0.187577H31.8094L39.1785 17.3375H37.1151ZM27.8457 10.1292H34.0068L30.9809 3.08162L27.8457 10.1292ZM52.597 0.509138H53.0525V11.1206C53.0525 15.5421 50.8284 17.8198 46.541 17.8198C43.3791 17.8198 40.2707 16.5872 40.2707 11.1206V0.509138H42.1732V11.1206C42.1732 13.0232 42.4144 17.1231 46.943 17.1231C49.9978 17.1231 52.597 15.9976 52.597 10.8795V0.509138ZM67.5301 0.509138V0.937885H62.3584V17.3375H60.4291V0.937885H55.2574V0.509138H67.5301ZM81.5017 0.509138H82.0377L76.6516 9.48604V17.3375H74.7222V9.99518L69.3094 0.509138H71.5067L76.4104 9.05729L81.5017 0.509138ZM90.2909 16.078C91.2288 16.8015 92.515 17.5786 94.8195 17.5786C96.9632 17.5786 98.9462 16.2924 98.9462 13.6931C98.9462 8.38737 90.3713 10.6383 90.3713 4.63583C90.3713 1.28624 93.3457 0 95.4626 0C96.7765 0.0106725 98.0666 0.351623 99.2141 0.991479L99.2409 1.55421C99.2409 1.55421 97.7671 0.455544 95.4894 0.455544C93.185 0.455544 91.8719 2.00975 91.8719 3.91232C91.8719 8.78932 100.474 7.02074 100.474 13.0232C100.474 15.9976 97.7135 18.0074 94.8195 18.0074C91.9255 18.0074 90.2909 16.6944 90.2909 16.6944V16.078ZM114.189 0.509138V0.937885H109.017V17.3375H107.088V0.937885H101.916V0.509138H114.189ZM122.731 0.187577C127.527 0.187577 131.949 2.76006 131.949 8.9769C131.949 16.1316 126.08 17.8198 122.731 17.8198C119.354 17.8198 113.513 16.1316 113.513 8.9769C113.513 2.76006 117.907 0.187577 122.731 0.187577ZM122.731 17.3643C125.732 17.3643 129.992 16.0244 129.992 8.9769C129.992 2.03655 125.33 0.616325 122.731 0.616325C120.131 0.616325 115.468 2.03655 115.468 8.9769C115.468 16.0244 119.703 17.3643 122.731 17.3643ZM146.269 17.3375H143.83L137.613 9.51284H136.381V17.3375H134.478V0.509138H139.569C140.936 0.509138 144.956 1.01828 144.956 4.71622C144.956 8.173 141.954 9.13768 139.971 9.40565L146.269 17.3375ZM136.381 0.937885V9.08409H137.855C140.99 9.08409 142.919 8.01222 142.919 5.01099C142.919 2.06335 141.284 0.937885 138.551 0.937885H136.381ZM157 0.937885H150.381V8.33378H156.277V8.76253H150.381V16.9087H157V17.3375H148.481V0.509138H157.002L157 0.937885Z" fill="#78020E"/>
<path d="M40.1828 35.2452C40.2136 35.2341 40.2475 35.2348 40.2779 35.2471C40.3083 35.2593 40.3332 35.2823 40.3478 35.3116C40.358 35.3193 40.3663 35.3293 40.372 35.3407C40.3777 35.3522 40.3807 35.3648 40.3807 35.3776C40.3807 35.3903 40.3777 35.403 40.372 35.4144C40.3663 35.4258 40.358 35.4358 40.3478 35.4435C39.9298 35.928 39.2695 36.3903 38.367 36.8305C37.6372 37.1889 36.8744 37.4761 36.0893 37.688C34.9681 38.032 33.7929 38.1661 32.623 38.0835C31.4132 38.0392 30.709 37.6212 30.5103 36.8294C30.2459 35.7068 30.9719 34.7714 32.6883 34.0233C33.5908 33.6703 34.2733 33.6263 34.7356 33.8914C34.9778 34.0886 35.0657 34.2987 34.9993 34.5185C34.9435 34.7588 34.8174 34.9771 34.637 35.1455C34.6332 35.1508 34.6282 35.1551 34.6224 35.1581C34.6167 35.1611 34.6103 35.1627 34.6037 35.1627C34.5972 35.1627 34.5908 35.1611 34.585 35.1581C34.5793 35.1551 34.5743 35.1508 34.5705 35.1455C34.548 35.1241 34.548 35.0908 34.5705 35.0469C34.6882 34.9075 34.7577 34.7338 34.7688 34.5517C34.7902 34.3748 34.6809 34.243 34.4387 34.1551C34.1964 34.0886 33.8442 34.1215 33.3818 34.2537C32.7316 34.4708 32.1272 34.8066 31.5993 35.2441C31.1377 35.7072 30.9287 36.1584 30.9723 36.5979C30.9937 36.928 31.1699 37.1813 31.5007 37.3578C31.9402 37.5772 32.6662 37.6651 33.6787 37.6215C34.8079 37.5587 35.921 37.3249 36.98 36.928C37.5431 36.704 38.0941 36.4507 38.6307 36.1691C38.7636 36.1027 39.0059 35.9601 39.3574 35.7404C39.6184 35.5528 39.8945 35.3872 40.1828 35.2452ZM52.9989 34.0897C53.0118 34.0833 53.026 34.08 53.0404 34.0801C53.0548 34.0801 53.069 34.0835 53.0819 34.0899C53.0948 34.0964 53.106 34.1057 53.1146 34.1172C53.1233 34.1287 53.1292 34.142 53.1318 34.1562C53.1382 34.169 53.1415 34.1831 53.1415 34.1975C53.1415 34.2118 53.1381 34.2259 53.1316 34.2387C53.1252 34.2515 53.1158 34.2626 53.1043 34.2712C53.0928 34.2798 53.0795 34.2855 53.0654 34.288C52.3615 34.5531 51.1732 35.1033 49.5004 35.9387C47.8276 36.774 46.5056 37.3353 45.5345 37.6226C44.1054 38.0192 42.9621 38.0964 42.1046 37.8541C40.7398 38.5144 39.8155 38.4701 39.3317 37.7212C38.7822 36.9516 39.1784 36.0162 40.5204 34.915C41.335 34.2548 42.1825 33.8918 43.0628 33.826C43.5252 33.716 43.9103 33.7381 44.2183 33.8925C44.8121 34.1562 44.999 34.5742 44.7789 35.1466C44.6245 35.5432 44.3055 36.0055 43.8217 36.5336C43.4682 36.9119 43.0689 37.2446 42.633 37.524C43.0732 37.5897 43.7006 37.5565 44.5152 37.4243C45.3069 37.2714 46.2641 36.9523 47.3867 36.4671C47.7168 36.3128 48.2781 36.0377 49.0706 35.6418C49.8852 35.2452 50.5894 34.9261 51.1832 34.6846C51.776 34.4501 52.3823 34.2515 52.9989 34.0897ZM44.3501 34.5849C44.2837 34.3877 44.1186 34.2669 43.8549 34.2226C43.1068 34.0461 42.3365 34.3763 41.544 35.213C41.2139 35.5432 41.0488 35.8511 41.0488 36.137C41.0267 36.5114 41.2246 36.8526 41.6426 37.1606L42.0392 37.3589C42.4611 37.1392 42.85 36.8614 43.1947 36.5336C43.5491 36.1908 43.8696 35.8146 44.1518 35.4103C44.3719 35.0365 44.438 34.7614 44.3501 34.5849ZM40.3843 37.8541C40.7144 37.8756 41.0995 37.7873 41.5397 37.5894C40.7251 37.1049 40.4393 36.4886 40.6822 35.7404C40.7918 35.4629 40.948 35.2062 41.1442 34.9815C41.012 35.0694 40.858 35.1794 40.6822 35.3116C40.1535 35.7961 39.8123 36.2363 39.6586 36.6322C39.6041 36.7629 39.576 36.9032 39.576 37.0449C39.576 37.1865 39.6041 37.3268 39.6586 37.4575C39.7447 37.5721 39.8545 37.6669 39.9804 37.7353C40.1064 37.8037 40.2456 37.8442 40.3886 37.8541H40.3843ZM60.458 34.1894C60.4929 34.1894 60.5265 34.2033 60.5512 34.228C60.5759 34.2527 60.5898 34.2863 60.5898 34.3212C60.5898 34.3562 60.5759 34.3897 60.5512 34.4145C60.5265 34.4392 60.4929 34.4531 60.458 34.4531C58.5436 34.6074 57.4003 34.7396 57.028 34.8497C56.0032 35.1381 55.0248 35.5712 54.1222 36.1359C53.6606 36.4217 53.3526 36.6197 53.1983 36.7297C53.2428 37.0705 53.2316 37.4162 53.1651 37.7534C53.0329 38.7223 52.6588 39.3826 52.0428 39.7342C51.6027 39.955 51.2393 39.9439 50.9528 39.7009C50.7119 39.4601 50.6462 39.1411 50.7555 38.7438C50.9092 38.1278 51.4372 37.4786 52.3397 36.7962C52.4546 36.6898 52.576 36.5907 52.7031 36.4993C52.6366 35.1787 52.6366 34.3752 52.7031 34.0886C52.8618 33.3542 53.2419 32.686 53.7921 32.1743C54.328 31.6439 55.0039 31.2773 55.7407 31.1174C56.7969 30.898 57.4239 31.1181 57.6218 31.7777C57.8198 32.3494 57.5886 32.8556 56.9283 33.2965C56.9014 33.2674 56.8794 33.2341 56.863 33.1979C57.1266 32.8013 57.2696 32.4601 57.2917 32.1743C57.2917 31.7334 56.9837 31.5133 56.3678 31.514C55.921 31.531 55.4825 31.6395 55.0795 31.8329C54.6764 32.0263 54.3174 32.3005 54.0247 32.6384C53.7341 32.9345 53.5055 33.2857 53.3524 33.6713C53.1992 34.0569 53.1246 34.4692 53.1329 34.884C53.1142 35.313 53.1253 35.7427 53.1661 36.1702C53.7599 35.7958 54.288 35.4874 54.7503 35.2452C56.4901 34.285 58.4942 33.9145 60.4623 34.1894H60.458ZM51.9078 39.2068C52.4351 38.7888 52.6992 38.0846 52.6999 37.0942C52.4197 37.3062 52.155 37.538 51.9078 37.7877C51.5333 38.2057 51.3133 38.5687 51.2475 38.8767C51.1596 39.1189 51.2036 39.284 51.3794 39.3719C51.5166 39.4162 51.6941 39.3612 51.9121 39.2068H51.9078ZM79.5231 35.1798C79.5433 35.1687 79.5659 35.1629 79.589 35.1629C79.612 35.1629 79.6347 35.1687 79.6549 35.1798C79.6743 35.188 79.6908 35.2017 79.7024 35.2193C79.7141 35.2368 79.7203 35.2574 79.7203 35.2784C79.7309 35.3007 79.7336 35.326 79.7277 35.3501C79.7219 35.3741 79.7079 35.3954 79.6881 35.4103C78.7291 36.1675 77.6777 36.8 76.5594 37.2925C75.6074 37.7203 74.6109 38.0413 73.5882 38.2496C72.4878 38.4261 71.6303 38.3822 71.0157 38.1178C70.6686 37.9887 70.3534 37.7861 70.0918 37.524C69.9405 37.3273 69.8078 37.117 69.6952 36.8959C69.6084 36.6813 69.5092 36.472 69.3983 36.2688C69.3212 36.1674 69.2188 36.088 69.1014 36.0384C68.9729 35.9941 68.8333 35.9941 68.7048 36.0384C68.5505 36.0598 68.4304 36.0823 68.3415 36.1038C68.2761 36.1263 68.1442 36.1809 67.9459 36.2688C67.8397 36.3217 67.7293 36.3658 67.6158 36.4007C66.9089 36.6775 66.2244 37.0086 65.5686 37.3911C65.5497 37.4076 65.5276 37.42 65.5037 37.4274C65.4797 37.4349 65.4544 37.4371 65.4295 37.4341C65.4046 37.431 65.3807 37.4228 65.3592 37.4098C65.3377 37.3969 65.3192 37.3795 65.3049 37.3589C65.2724 37.31 65.255 37.2526 65.255 37.1938C65.255 37.1351 65.2724 37.0777 65.3049 37.0288C65.9535 36.1981 66.4938 35.2883 66.9127 34.3212C67.2214 33.7274 67.2214 33.3423 66.9127 33.1658C66.7369 33.055 66.3189 33 65.6586 33.0007C64.6097 33.0035 63.5697 33.1937 62.5877 33.5624C62.0818 34.7728 61.3004 35.9501 60.2436 37.0942C59.6062 37.7773 59.0453 38.1296 58.5608 38.151C58.1867 38.1725 57.9445 38.0299 57.8341 37.7223C57.779 37.5667 57.7565 37.4014 57.7679 37.2368C57.7793 37.0721 57.8245 36.9116 57.9005 36.7651C57.9655 36.5664 58.1964 36.2252 58.5929 35.7415C58.8507 35.3977 59.1503 35.0873 59.4847 34.8175C60.1352 34.2371 60.8699 33.7586 61.6638 33.3984C61.9085 33.2703 62.1621 33.1599 62.4227 33.0682C62.473 32.9495 62.517 32.8282 62.5545 32.7049C62.6435 32.4851 62.7089 32.3201 62.7528 32.2097C62.7518 32.1023 62.7869 31.9978 62.8525 31.9127C62.8739 31.7798 62.9286 31.7584 63.0176 31.8463C63.0383 31.8872 63.0493 31.9323 63.0497 31.9781C62.9988 32.3029 62.9217 32.623 62.8193 32.9353C64.0696 32.5015 65.4088 32.388 66.7144 32.6052C67.1767 32.6716 67.4625 32.9249 67.5719 33.3651C67.6162 33.651 67.5283 34.0472 67.3082 34.5538C66.9889 35.2439 66.6132 35.9064 66.1849 36.5346C66.9345 36.1824 67.3747 35.9841 67.5054 35.9398C67.5863 35.9163 67.664 35.8832 67.7369 35.8411C67.8305 35.7936 67.9305 35.76 68.0338 35.7415L68.3307 35.6428C68.4263 35.6065 68.5267 35.5841 68.6287 35.5764C68.7261 35.5539 68.8257 35.5431 68.9256 35.5442C69.0283 35.5425 69.13 35.5649 69.2225 35.6096C69.3137 35.6334 69.4021 35.6668 69.4862 35.7093C69.6634 35.8415 69.8285 36.0723 69.9814 36.4017C70.0775 36.6074 70.1879 36.8062 70.3115 36.9966C70.499 37.2954 70.7768 37.5267 71.1047 37.6569C71.6985 37.9206 72.5346 37.9424 73.6128 37.7223C74.406 37.5686 75.4186 37.2278 76.6505 36.6997C77.6372 36.2474 78.5976 35.7399 79.5273 35.1798H79.5231ZM60.5405 36.1038C61.1403 35.3804 61.6603 34.5944 62.0915 33.7596C61.8233 33.8603 61.5684 33.9935 61.3326 34.1562C60.6786 34.5092 60.0783 34.9539 59.5501 35.4767C59.2814 35.7372 59.0276 36.0128 58.7902 36.302C58.5826 36.5673 58.4054 36.8549 58.2617 37.1595C58.1738 37.5111 58.251 37.688 58.4933 37.688C58.6476 37.688 58.878 37.5883 59.1867 37.39C59.5412 37.1713 59.9939 36.7426 60.5448 36.1038H60.5405ZM87.5727 35.6085C87.5856 35.6022 87.5998 35.5989 87.6142 35.5989C87.6286 35.599 87.6428 35.6023 87.6557 35.6088C87.6685 35.6152 87.6797 35.6245 87.6884 35.636C87.6971 35.6475 87.7029 35.6609 87.7056 35.675C87.7158 35.6827 87.7241 35.6927 87.7298 35.7041C87.7355 35.7155 87.7385 35.7281 87.7385 35.7409C87.7385 35.7537 87.7355 35.7663 87.7298 35.7778C87.7241 35.7892 87.7158 35.7992 87.7056 35.8068C87.507 36.0055 87.0886 36.3028 86.4505 36.6986C86.0386 36.9502 85.6087 37.1709 85.1642 37.3589C84.3153 37.7366 83.4133 37.9814 82.49 38.0846C80.9722 38.2832 79.905 38.1182 79.2883 37.5894C78.8267 37.2185 78.6734 36.7115 78.8285 36.0684C78.9828 35.4967 79.4891 34.9358 80.3473 34.3855C81.2934 33.8346 82.1187 33.6252 82.8233 33.7574C83.2199 33.8468 83.4182 34.0779 83.4182 34.4509C83.4349 34.6212 83.4072 34.7929 83.3377 34.9492C83.2681 35.1055 83.1592 35.2411 83.0216 35.3427C82.5101 35.8295 81.844 36.1216 81.1394 36.1681C80.554 36.2311 79.9638 36.1037 79.4566 35.8047C79.1708 36.2892 79.1708 36.7179 79.4566 37.0909C79.6767 37.3561 80.0397 37.5322 80.5456 37.6194C81.4917 37.7737 82.5482 37.6965 83.7151 37.3878C84.3783 37.1725 85.0286 36.9191 85.6626 36.629C85.7066 36.6075 85.9713 36.4639 86.4547 36.2002C86.816 35.9797 87.1909 35.782 87.577 35.6085H87.5727ZM81.2348 34.4863C80.4867 34.8164 79.9364 35.2016 79.5841 35.6418L79.5509 35.675C80.1011 35.8726 80.6967 35.9069 81.2659 35.7736C82.1234 35.6414 82.6736 35.2895 82.9165 34.7178C83.0044 34.4756 82.9712 34.3327 82.8169 34.2891C82.6351 34.2357 82.4455 34.2135 82.2563 34.2237C82.0183 34.223 81.6793 34.3105 81.2391 34.4863H81.2348ZM98.2259 25.5394C98.247 25.5395 98.2677 25.5459 98.2852 25.5577C98.3028 25.5695 98.3164 25.5863 98.3245 25.6059C98.3314 25.6494 98.3217 25.694 98.2972 25.7307C98.2728 25.7675 98.2355 25.7937 98.1926 25.8042C97.8854 25.8256 97.4234 25.8256 96.8067 25.8042C96.2115 25.7599 95.8042 25.7377 95.5848 25.7377C94.5944 25.7813 93.7141 25.8585 92.9438 25.9692C92.8979 25.9697 92.8528 25.9807 92.8119 26.0014H92.7122C91.3218 27.9825 90.1278 30.0944 89.1472 32.3072C88.5654 33.5764 88.1652 34.9212 87.9586 36.302C87.6727 38.2386 87.9811 39.4051 88.8836 39.8017C88.949 39.8896 88.9275 39.956 88.8171 40C88.2669 39.8892 87.8596 39.4491 87.5952 38.6795C87.398 38.0842 87.3651 37.3246 87.4966 36.4007C87.7824 34.1333 88.8278 31.4372 90.6328 28.3123C90.9187 27.8293 91.3699 27.1033 91.9866 26.1343C90.6022 26.4396 89.2453 26.8583 87.9296 27.3862C87.8642 27.4088 87.831 27.3755 87.831 27.2876C87.8096 27.2651 87.8203 27.2437 87.8642 27.2212C89.074 26.5395 90.5596 26.0114 92.321 25.637C92.4282 25.504 92.574 25.3154 92.7498 25.0753C92.9266 24.8116 93.0359 24.6465 93.0799 24.5801C93.4322 24.0956 93.8723 23.5125 94.4004 22.8308C94.5295 22.6948 94.6508 22.5517 94.7638 22.4021C94.8975 22.2584 95.019 22.1039 95.1271 21.9401C95.3348 21.6866 95.5671 21.4543 95.8206 21.2466C95.8421 21.2251 95.8753 21.2251 95.9192 21.2466C95.9857 21.2691 96.0071 21.3023 95.9857 21.3463C95.812 21.6977 95.6015 22.0297 95.3576 22.3367C95.2697 22.446 95.1489 22.6111 94.9953 22.8319C94.8762 22.9792 94.766 23.1335 94.6652 23.2938C94.2021 23.8877 93.7398 24.5147 93.2782 25.175C93.146 25.3736 93.0688 25.4948 93.0467 25.5383C93.8846 25.3787 94.7361 25.3015 95.5891 25.3079C96.6459 25.2643 97.5263 25.3415 98.2301 25.5394H98.2259ZM100.412 34.7821C100.421 34.7765 100.43 34.7729 100.441 34.7715C100.451 34.7701 100.461 34.7711 100.47 34.7743C100.48 34.7775 100.489 34.7829 100.496 34.79C100.503 34.7971 100.509 34.8058 100.512 34.8154C100.522 34.8185 100.53 34.8239 100.538 34.831C100.545 34.8382 100.55 34.8469 100.553 34.8565C100.556 34.8661 100.557 34.8763 100.556 34.8863C100.554 34.8963 100.55 34.9058 100.544 34.914C100.391 35.2227 100.039 35.63 99.4885 36.1359C99.0865 36.4951 98.6432 36.8053 98.168 37.0599C97.4284 37.5142 96.6111 37.8278 95.7574 37.9849C94.7455 38.1392 93.9095 38.0842 93.2492 37.8198C92.8458 37.6577 92.5164 37.3524 92.3242 36.9623C92.1238 36.5523 92.0545 36.0904 92.1259 35.6396C92.2314 35.1534 92.4096 34.6858 92.6544 34.2526C93.0509 33.6588 93.3593 33.2629 93.5794 33.065C93.6004 33.065 93.621 33.0712 93.6385 33.0829C93.656 33.0945 93.6698 33.111 93.678 33.1304C93.6115 33.2376 93.4915 33.4605 93.3146 33.7907C93.161 34.1208 93.0399 34.3741 92.9513 34.5506C92.871 34.777 92.8051 35.0083 92.754 35.243C92.6692 35.4876 92.6244 35.7442 92.6211 36.003C92.6237 36.3968 92.7771 36.7747 93.0499 37.0588C93.3271 37.3075 93.6717 37.4686 94.0403 37.5218C94.4349 37.5652 94.8325 37.5759 95.229 37.554C95.6192 37.5108 96.0065 37.4442 96.3887 37.3546C97.0054 37.2003 97.6985 36.8701 98.4681 36.3642C98.6003 36.2763 98.9304 36.023 99.4585 35.6043C99.6198 35.4694 99.774 35.3263 99.9205 35.1755C100.074 35.0313 100.238 34.8997 100.412 34.7821ZM94.3715 32.0757C94.1507 32.12 94.0185 32.0428 93.9749 31.8441C93.9095 31.7123 93.9534 31.5687 94.1067 31.4154C94.2139 31.3082 94.305 31.2503 94.3715 31.2503C94.4303 31.2268 94.4939 31.2175 94.557 31.2231C94.6201 31.2287 94.681 31.249 94.7348 31.2825C94.8881 31.4154 94.9106 31.5805 94.8002 31.7777C94.6444 31.9771 94.5015 32.0767 94.3715 32.0767V32.0757ZM109.014 35.2441C109.045 35.2331 109.079 35.2337 109.109 35.246C109.14 35.2582 109.165 35.2812 109.179 35.3106C109.189 35.3183 109.198 35.3282 109.203 35.3397C109.209 35.3511 109.212 35.3637 109.212 35.3765C109.212 35.3893 109.209 35.4019 109.203 35.4133C109.198 35.4248 109.189 35.4347 109.179 35.4424C108.761 35.9269 108.101 36.3892 107.198 36.8294C106.468 37.1879 105.706 37.475 104.921 37.6869C103.799 38.0309 102.624 38.165 101.454 38.0824C100.243 38.0381 99.5385 37.6201 99.3406 36.8283C99.0769 35.7057 99.8033 34.7703 101.52 34.0222C102.422 33.6692 103.105 33.6252 103.567 33.8903C103.809 34.0876 103.897 34.2977 103.831 34.5174C103.775 34.758 103.648 34.9764 103.467 35.1444C103.464 35.1497 103.459 35.1541 103.453 35.1571C103.447 35.1601 103.441 35.1616 103.435 35.1616C103.428 35.1616 103.422 35.1601 103.416 35.1571C103.41 35.1541 103.405 35.1497 103.402 35.1444C103.379 35.123 103.379 35.0898 103.402 35.0458C103.52 34.9064 103.589 34.7327 103.6 34.5506C103.622 34.3734 103.512 34.2412 103.27 34.154C103.028 34.0876 102.675 34.1204 102.213 34.2526C101.563 34.4697 100.958 34.8055 100.431 35.243C99.9683 35.7061 99.7593 36.1573 99.8036 36.5968C99.8251 36.9269 100.001 37.1803 100.331 37.3568C100.772 37.5761 101.498 37.664 102.51 37.6204C103.639 37.5577 104.752 37.3238 105.811 36.9269C106.374 36.7027 106.925 36.4494 107.462 36.1681C107.594 36.1016 107.836 35.959 108.189 35.7393C108.45 35.5521 108.726 35.3869 109.014 35.2452V35.2441ZM117.042 34.1883C117.06 34.1883 117.077 34.1917 117.093 34.1984C117.109 34.205 117.123 34.2147 117.135 34.2269C117.148 34.2392 117.157 34.2537 117.164 34.2697C117.171 34.2857 117.174 34.3028 117.174 34.3202C117.174 34.3375 117.171 34.3546 117.164 34.3706C117.157 34.3866 117.148 34.4011 117.135 34.4134C117.123 34.4256 117.109 34.4353 117.093 34.442C117.077 34.4486 117.06 34.452 117.042 34.452C115.128 34.6064 113.985 34.7385 113.612 34.8486C112.588 35.1371 111.609 35.5702 110.707 36.1348C110.245 36.4207 109.937 36.6186 109.783 36.7287C109.827 37.0694 109.816 37.4151 109.749 37.7523C109.618 38.7213 109.244 39.3815 108.627 39.7331C108.186 39.9539 107.823 39.9428 107.538 39.6999C107.296 39.4591 107.23 39.14 107.34 38.7427C107.494 38.1267 108.022 37.4775 108.924 36.7951C109.039 36.6887 109.16 36.5896 109.287 36.4982C109.221 35.1777 109.221 34.3741 109.287 34.0876C109.447 33.3533 109.827 32.6853 110.376 32.1732C110.912 31.6429 111.588 31.2762 112.325 31.1163C113.38 30.897 114.007 31.1171 114.206 31.7766C114.404 32.3483 114.173 32.8546 113.513 33.2955C113.486 33.2663 113.464 33.233 113.447 33.1968C113.711 32.8003 113.854 32.459 113.876 32.1732C113.876 31.7323 113.568 31.5122 112.952 31.5129C112.505 31.5294 112.065 31.6379 111.661 31.8315C111.257 32.0251 110.898 32.2998 110.605 32.6384C110.314 32.9345 110.086 33.2857 109.932 33.6713C109.779 34.0569 109.705 34.4692 109.713 34.884C109.694 35.313 109.705 35.7427 109.746 36.1702C110.341 35.7958 110.87 35.4874 111.331 35.2452C113.071 34.2849 115.075 33.9145 117.042 34.1894V34.1883ZM108.492 39.2057C109.02 38.7877 109.284 38.0835 109.284 37.0931C109.004 37.3054 108.74 37.5372 108.492 37.7866C108.118 38.2046 107.898 38.5676 107.832 38.8756C107.744 39.1178 107.788 39.2829 107.964 39.3708C108.096 39.4158 108.272 39.3612 108.492 39.2068V39.2057Z" fill="#66000E"/>
</g>
<defs>
<clipPath id="clip0_81_5851">
<rect width="157" height="40" fill="white"/>
</clipPath>
</defs>
</svg>
