<svg width="251" height="64" viewBox="0 0 251 64" fill="none" xmlns="http://www.w3.org/2000/svg">
<g clip-path="url(#clip0_81_6420)">
<path d="M10.453 13.3769C14.1372 13.8485 17.693 15.6064 17.693 20.2798C17.693 27.5685 8.52517 27.74 7.36849 27.74H0V0.81462H8.13961C10.0674 0.81462 16.7505 1.11474 16.7505 6.55984C16.7505 10.8044 13.4124 12.6052 10.453 13.3769ZM6.51169 1.50062H3.04165V13.2483H5.39785C10.4101 13.2483 13.4946 11.2332 13.4946 7.03146C13.4946 2.82973 10.6243 1.50062 6.51169 1.50062ZM5.39785 27.054C10.3279 27.054 14.4405 25.8106 14.4405 20.7514C14.4405 17.3214 13.0268 13.9343 6.51512 13.9343H3.04165V27.054H5.39785ZM35.0843 1.50062H24.5028V13.334H33.9276V14.02H24.5028V27.054H35.0843V27.74H21.4663V0.81462H35.0895L35.0843 1.50062ZM59.3369 27.74L54.6674 16.9355H44.2144L39.3735 27.74H38.431L50.6404 0.300123H50.8546L62.6356 27.74H59.3369ZM44.5177 16.2067H54.3675L49.53 4.9306L44.5177 16.2067ZM84.0882 0.81462H84.8165V17.793C84.8165 24.8674 81.2608 28.5117 74.4064 28.5117C69.3512 28.5117 64.3818 26.5395 64.3818 17.793V0.81462H67.4234V17.793C67.4234 20.8371 67.809 27.397 75.049 27.397C79.9327 27.397 84.0882 25.5962 84.0882 17.4071V0.81462ZM107.962 0.81462V1.50062H99.694V27.74H96.6095V1.50062H88.3414V0.81462H107.962ZM130.299 0.81462H131.156L122.545 15.1777V27.74H119.46V15.9923L110.807 0.81462H114.32L122.159 14.4917L130.299 0.81462ZM144.351 25.7248C145.85 26.8825 147.906 28.1258 151.59 28.1258C155.018 28.1258 158.188 26.0678 158.188 21.909C158.188 13.4198 144.479 17.0213 144.479 7.41733C144.479 2.05799 149.234 0 152.619 0C154.719 0.0170759 156.782 0.562597 158.616 1.58637L158.659 2.48674C158.659 2.48674 156.303 0.728871 152.661 0.728871C148.977 0.728871 146.878 3.21561 146.878 6.25971C146.878 14.0629 160.63 11.2332 160.63 20.8371C160.63 25.5962 156.217 28.8118 151.59 28.8118C146.964 28.8118 144.351 26.711 144.351 26.711V25.7248ZM182.557 0.81462V1.50062H174.289V27.74H171.204V1.50062H162.936V0.81462H182.557ZM196.213 0.300123C203.881 0.300123 210.95 4.4161 210.95 14.363C210.95 25.8106 201.568 28.5117 196.213 28.5117C190.815 28.5117 181.476 25.8106 181.476 14.363C181.476 4.4161 188.501 0.300123 196.213 0.300123ZM196.213 27.7828C201.011 27.7828 207.822 25.6391 207.822 14.363C207.822 3.25848 200.368 0.986119 196.213 0.986119C192.057 0.986119 184.601 3.25848 184.601 14.363C184.601 25.6391 191.372 27.7828 196.213 27.7828ZM233.843 27.74H229.945L220.006 15.2205H218.035V27.74H214.994V0.81462H223.133C225.318 0.81462 231.744 1.62924 231.744 7.54596C231.744 13.0768 226.946 14.6203 223.776 15.049L233.843 27.74ZM218.035 1.50062V14.5345H220.392C225.404 14.5345 228.488 12.8196 228.488 8.01758C228.488 3.30136 225.875 1.50062 221.505 1.50062H218.035ZM251 1.50062H240.419V13.334H249.843V14.02H240.419V27.054H251V27.74H237.38V0.81462H251.003L251 1.50062Z" fill="#FFFDFA"/>
<path d="M64.2413 56.3922C64.2907 56.3746 64.3448 56.3756 64.3934 56.3952C64.4421 56.4148 64.4818 56.4516 64.5052 56.4986C64.5215 56.5109 64.5348 56.5268 64.5439 56.5451C64.553 56.5634 64.5577 56.5836 64.5577 56.604C64.5577 56.6245 64.553 56.6447 64.5439 56.663C64.5348 56.6813 64.5215 56.6972 64.5052 56.7095C63.8369 57.4847 62.7813 58.2244 61.3385 58.9287C60.1716 59.5022 58.9521 59.9617 57.697 60.3007C55.9044 60.8511 54.0257 61.0656 52.1553 60.9335C50.2212 60.8626 49.0953 60.1938 48.7777 58.927C48.3551 57.1308 49.5157 55.6342 52.2598 54.4372C53.7026 53.8724 54.7936 53.802 55.5328 54.2262C55.92 54.5418 56.0606 54.8779 55.9543 55.2295C55.8652 55.6141 55.6635 55.9634 55.3751 56.2328C55.3691 56.2412 55.3611 56.2482 55.3519 56.253C55.3426 56.2577 55.3324 56.2602 55.322 56.2602C55.3116 56.2602 55.3013 56.2577 55.2921 56.253C55.2828 56.2482 55.2749 56.2412 55.2689 56.2328C55.2329 56.1985 55.2329 56.1453 55.2689 56.075C55.457 55.8519 55.5681 55.574 55.5859 55.2826C55.6202 54.9997 55.4454 54.7887 55.0581 54.6481C54.6708 54.5418 54.1076 54.5944 53.3685 54.8059C52.3289 55.1532 51.3626 55.6905 50.5188 56.3905C49.7808 57.1314 49.4466 57.8534 49.5163 58.5566C49.5506 59.0848 49.8322 59.4901 50.3611 59.7725C51.0637 60.1235 52.2244 60.2641 53.8432 60.1944C55.6484 60.0939 57.428 59.7198 59.121 59.0848C60.0212 58.7263 60.9021 58.321 61.76 57.8706C61.9725 57.7642 62.3598 57.5361 62.9218 57.1846C63.3391 56.8845 63.7804 56.6195 64.2413 56.3922ZM84.7308 54.5435C84.7515 54.5333 84.7742 54.528 84.7972 54.5281C84.8202 54.5282 84.8429 54.5335 84.8635 54.5438C84.8841 54.5541 84.902 54.5691 84.9158 54.5875C84.9297 54.6058 84.9391 54.6272 84.9433 54.6498C84.9535 54.6703 84.9588 54.693 84.9588 54.7159C84.9587 54.7388 84.9533 54.7614 84.943 54.7819C84.9327 54.8024 84.9177 54.8202 84.8994 54.8339C84.881 54.8476 84.8597 54.8568 84.8371 54.8608C83.7118 55.2849 81.812 56.1653 79.1376 57.5018C76.4633 58.8384 74.3498 59.7365 72.7973 60.1961C70.5125 60.8306 68.6847 60.9541 67.3138 60.5665C65.1318 61.623 63.6541 61.5521 62.8807 60.3539C62.0022 59.1225 62.6356 57.6259 64.7811 55.864C66.0834 54.8076 67.4383 54.2268 68.8457 54.1216C69.5849 53.9455 70.2006 53.981 70.693 54.2279C71.6423 54.6498 71.9411 55.3187 71.5892 56.2345C71.3425 56.869 70.8324 57.6087 70.059 58.4537C69.4938 59.0589 68.8554 59.5912 68.1586 60.0383C68.8623 60.1435 69.8653 60.0903 71.1677 59.8788C72.4335 59.6341 73.9637 59.1237 75.7584 58.3473C76.2862 58.1004 77.1836 57.6602 78.4505 57.0268C79.7528 56.3922 80.8787 55.8818 81.828 55.4953C82.7757 55.1201 83.7451 54.8023 84.7308 54.5435ZM70.9038 55.3358C70.7975 55.0203 70.5336 54.827 70.1121 54.7561C68.916 54.4737 67.6845 55.002 66.4176 56.3408C65.8898 56.869 65.6259 57.3618 65.6259 57.8191C65.5905 58.4182 65.9069 58.9642 66.5752 59.4569L67.2093 59.7742C67.8837 59.4227 68.5055 58.9782 69.0565 58.4537C69.6231 57.9052 70.1356 57.3033 70.5868 56.6564C70.9386 56.0584 71.0443 55.6182 70.9038 55.3358ZM64.5635 60.5665C65.0912 60.6008 65.707 60.4596 66.4107 60.1429C65.1084 59.3678 64.6514 58.3816 65.0398 57.1846C65.2149 56.7406 65.4647 56.3299 65.7784 55.9704C65.5671 56.111 65.3209 56.2871 65.0398 56.4986C64.1945 57.2738 63.649 57.978 63.4033 58.6114C63.3162 58.8206 63.2713 59.045 63.2713 59.2717C63.2713 59.4984 63.3162 59.7228 63.4033 59.932C63.541 60.1153 63.7164 60.2669 63.9178 60.3764C64.1192 60.4859 64.3417 60.5507 64.5703 60.5665H64.5635ZM96.6558 54.703C96.7117 54.703 96.7653 54.7252 96.8048 54.7648C96.8444 54.8043 96.8666 54.858 96.8666 54.9139C96.8666 54.9699 96.8444 55.0235 96.8048 55.0631C96.7653 55.1026 96.7117 55.1249 96.6558 55.1249C93.5953 55.3718 91.7675 55.5833 91.1723 55.7594C89.5339 56.221 87.9696 56.9139 86.5267 57.8174C85.7887 58.2747 85.2963 58.5914 85.0496 58.7675C85.1207 59.3127 85.1028 59.8659 84.9965 60.4053C84.7851 61.9557 84.1871 63.0121 83.2023 63.5746C82.4986 63.9279 81.9177 63.9102 81.4596 63.5215C81.0746 63.1362 80.9695 62.6257 81.1443 61.99C81.3899 61.0044 82.2341 59.9657 83.677 58.8738C83.8607 58.7037 84.0547 58.545 84.2579 58.3988C84.1516 56.2859 84.1516 55.0002 84.2579 54.5418C84.5116 53.3666 85.1193 52.2976 85.9989 51.4788C86.8556 50.6302 87.9363 50.0437 89.1142 49.7878C90.8027 49.4368 91.8052 49.789 92.1216 50.8443C92.4381 51.7589 92.0685 52.569 91.0129 53.2744C90.9699 53.2277 90.9346 53.1745 90.9084 53.1166C91.3299 52.4821 91.5584 51.9361 91.5938 51.4788C91.5938 50.7734 91.1015 50.4212 90.1167 50.4224C89.4025 50.4495 88.7015 50.6232 88.0571 50.9326C87.4127 51.2421 86.8388 51.6808 86.3708 52.2214C85.9062 52.6952 85.5407 53.257 85.2959 53.874C85.0511 54.4909 84.9318 55.1506 84.945 55.8143C84.9151 56.5007 84.9329 57.1883 84.9982 57.8723C85.9475 57.2732 86.7917 56.7798 87.5309 56.3922C90.3123 54.8559 93.5163 54.2632 96.6627 54.703H96.6558ZM82.9864 62.7308C83.8295 62.062 84.2516 60.9353 84.2528 59.3506C83.8049 59.6899 83.3817 60.0607 82.9864 60.4602C82.3878 61.129 82.0359 61.7099 81.9308 62.2026C81.7903 62.5902 81.8606 62.8543 82.1416 62.995C82.3609 63.0658 82.6448 62.9778 82.9933 62.7308H82.9864ZM127.136 56.2876C127.168 56.2699 127.204 56.2606 127.241 56.2606C127.278 56.2606 127.314 56.2699 127.346 56.2876C127.377 56.3008 127.404 56.3227 127.422 56.3508C127.441 56.3788 127.451 56.4117 127.451 56.4454C127.468 56.4811 127.472 56.5216 127.463 56.5601C127.453 56.5985 127.431 56.6325 127.4 56.6564C125.866 57.868 124.186 58.8799 122.398 59.6679C120.876 60.3524 119.282 60.8661 117.647 61.1994C115.888 61.4818 114.517 61.4114 113.535 60.9884C112.98 60.7818 112.476 60.4577 112.058 60.0383C111.816 59.7236 111.604 59.3872 111.424 59.0333C111.285 58.6901 111.126 58.3551 110.949 58.0301C110.826 57.8678 110.662 57.7407 110.474 57.6613C110.269 57.5905 110.046 57.5905 109.84 57.6613C109.594 57.6956 109.402 57.7316 109.259 57.7659C109.155 57.802 108.944 57.8894 108.627 58.0301C108.457 58.1146 108.281 58.1852 108.099 58.241C106.969 58.6839 105.875 59.2137 104.826 59.8257C104.796 59.8522 104.761 59.872 104.722 59.8839C104.684 59.8957 104.644 59.8993 104.604 59.8945C104.564 59.8896 104.526 59.8764 104.492 59.8557C104.457 59.8349 104.428 59.8072 104.405 59.7742C104.353 59.696 104.325 59.6041 104.325 59.5101C104.325 59.4161 104.353 59.3242 104.405 59.246C105.442 57.917 106.305 56.4612 106.975 54.9139C107.469 53.9638 107.469 53.3476 106.975 53.0652C106.694 52.888 106.026 52.7999 104.97 52.8011C103.293 52.8056 101.631 53.1099 100.061 53.6997C99.2519 55.6365 98.0027 57.5201 96.3131 59.3506C95.2941 60.4436 94.3973 61.0073 93.6227 61.0416C93.0247 61.0759 92.6374 60.8478 92.4609 60.3556C92.3729 60.1066 92.3368 59.8422 92.3551 59.5788C92.3734 59.3154 92.4456 59.0585 92.5672 58.8241C92.6711 58.5063 93.0401 57.9603 93.6741 57.1863C94.0862 56.6362 94.5652 56.1396 95.0999 55.708C96.1398 54.7793 97.3144 54.0137 98.5836 53.4373C98.9749 53.2324 99.3803 53.0559 99.7968 52.9091C99.8773 52.7192 99.9477 52.5251 100.008 52.3277C100.15 51.9761 100.254 51.712 100.325 51.5354C100.323 51.3636 100.379 51.1964 100.484 51.0603C100.518 50.8477 100.606 50.8134 100.748 50.954C100.781 51.0194 100.799 51.0916 100.799 51.165C100.718 51.6845 100.595 52.1967 100.431 52.6964C102.43 52.0023 104.571 51.8207 106.658 52.1682C107.397 52.2746 107.854 52.6799 108.029 53.3842C108.1 53.8415 107.959 54.4755 107.607 55.2861C107.097 56.3901 106.496 57.4502 105.812 58.4554C107.01 57.8917 107.714 57.5744 107.923 57.5036C108.052 57.466 108.176 57.413 108.293 57.3458C108.442 57.2696 108.602 57.2159 108.768 57.1863L109.242 57.0285C109.395 56.9703 109.556 56.9345 109.719 56.9222C109.874 56.8862 110.034 56.8689 110.193 56.8707C110.357 56.868 110.52 56.9038 110.668 56.9753C110.814 57.0133 110.955 57.0668 111.089 57.1348C111.373 57.3463 111.637 57.7156 111.881 58.2427C112.035 58.5718 112.211 58.8899 112.409 59.1945C112.709 59.6726 113.153 60.0427 113.677 60.251C114.626 60.6729 115.963 60.7077 117.687 60.3556C118.955 60.1098 120.574 59.5644 122.543 58.7195C124.121 57.9958 125.656 57.1839 127.143 56.2876H127.136ZM96.7878 57.7659C97.7466 56.6086 98.5779 55.3511 99.2673 54.0153C98.8386 54.1765 98.4312 54.3896 98.0541 54.6498C97.0085 55.2147 96.0489 55.9261 95.2044 56.7627C94.7747 57.1795 94.3691 57.6204 93.9894 58.0832C93.6576 58.5076 93.3743 58.9678 93.1446 59.4552C93.0041 60.0177 93.1275 60.3007 93.5148 60.3007C93.7615 60.3007 94.13 60.1412 94.6235 59.8239C95.1901 59.4741 95.9138 58.7881 96.7946 57.7659H96.7878ZM140.005 56.9736C140.025 56.9634 140.048 56.9582 140.071 56.9582C140.094 56.9583 140.117 56.9637 140.137 56.974C140.158 56.9843 140.176 56.9992 140.19 57.0176C140.204 57.036 140.213 57.0573 140.217 57.08C140.234 57.0923 140.247 57.1082 140.256 57.1265C140.265 57.1448 140.27 57.165 140.27 57.1854C140.27 57.2059 140.265 57.2261 140.256 57.2444C140.247 57.2627 140.234 57.2786 140.217 57.2909C139.9 57.6087 139.231 58.0844 138.211 58.7178C137.552 59.1203 136.865 59.4734 136.154 59.7742C134.797 60.3786 133.355 60.7702 131.879 60.9353C129.452 61.2531 127.746 60.989 126.76 60.1429C126.022 59.5495 125.777 58.7384 126.025 57.7094C126.272 56.7947 127.081 55.8972 128.453 55.0168C129.966 54.1353 131.285 53.8003 132.412 54.0118C133.046 54.1548 133.363 54.5246 133.363 55.1214C133.39 55.3939 133.345 55.6686 133.234 55.9187C133.123 56.1688 132.949 56.3857 132.729 56.5483C131.911 57.3272 130.846 57.7945 129.72 57.8689C128.784 57.9698 127.84 57.7659 127.029 57.2875C126.572 58.0626 126.572 58.7486 127.029 59.3455C127.381 59.7696 127.962 60.0515 128.77 60.1909C130.283 60.4379 131.972 60.3144 133.838 59.8205C134.898 59.4759 135.937 59.0705 136.951 58.6063C137.021 58.572 137.445 58.3422 138.218 57.9203C138.795 57.5674 139.394 57.2512 140.012 56.9736H140.005ZM129.872 55.178C128.676 55.7062 127.797 56.3225 127.233 57.0268L127.18 57.08C128.06 57.3961 129.012 57.4509 129.922 57.2377C131.293 57.0262 132.173 56.4631 132.561 55.5485C132.701 55.1609 132.648 54.9322 132.402 54.8625C132.111 54.777 131.808 54.7416 131.505 54.7579C131.125 54.7567 130.583 54.8968 129.879 55.178H129.872ZM157.036 40.863C157.07 40.8632 157.103 40.8734 157.131 40.8923C157.159 40.9112 157.181 40.938 157.194 40.9693C157.205 41.039 157.189 41.1104 157.15 41.1691C157.111 41.2279 157.052 41.2698 156.983 41.2866C156.492 41.3209 155.753 41.3209 154.768 41.2866C153.816 41.2157 153.165 41.1803 152.814 41.1803C151.231 41.25 149.823 41.3735 148.592 41.5507C148.518 41.5514 148.446 41.569 148.381 41.6022H148.222C145.999 44.7719 144.09 48.151 142.522 51.6915C141.592 53.7222 140.952 55.8739 140.622 58.0832C140.165 61.1816 140.658 63.0481 142.101 63.6827C142.205 63.8233 142.171 63.9296 141.994 63.9999C141.115 63.8227 140.464 63.1184 140.041 61.8871C139.726 60.9347 139.673 59.7193 139.883 58.241C140.34 54.6132 142.011 50.2995 144.897 45.2997C145.354 44.5268 146.076 43.3652 147.061 41.8148C144.848 42.3033 142.679 42.9732 140.575 43.8179C140.471 43.854 140.418 43.8008 140.418 43.6602C140.384 43.6241 140.401 43.5898 140.471 43.5538C142.405 42.4631 144.78 41.6182 147.596 41.0191C147.767 40.8064 148.001 40.5046 148.282 40.1204C148.564 39.6985 148.739 39.4344 148.809 39.3281C149.373 38.5529 150.076 37.62 150.92 36.5292C151.127 36.3116 151.321 36.0826 151.501 35.8432C151.715 35.6134 151.909 35.3662 152.082 35.1041C152.414 34.6985 152.786 34.3268 153.191 33.9945C153.225 33.9602 153.278 33.9602 153.349 33.9945C153.455 34.0305 153.489 34.0837 153.455 34.154C153.177 34.7163 152.841 35.2475 152.451 35.7386C152.31 35.9136 152.117 36.1777 151.872 36.5309C151.681 36.7667 151.505 37.0135 151.344 37.2701C150.603 38.2202 149.864 39.2235 149.126 40.2799C148.915 40.5978 148.792 40.7916 148.756 40.8613C150.096 40.6058 151.457 40.4823 152.821 40.4926C154.51 40.4228 155.918 40.5463 157.043 40.863H157.036ZM160.532 55.6514C160.546 55.6423 160.561 55.6365 160.577 55.6343C160.593 55.6322 160.609 55.6337 160.625 55.6389C160.64 55.644 160.654 55.6526 160.666 55.664C160.677 55.6753 160.686 55.6892 160.691 55.7045C160.707 55.7096 160.721 55.7182 160.732 55.7296C160.744 55.7411 160.752 55.755 160.757 55.7704C160.762 55.7858 160.763 55.8021 160.761 55.8181C160.758 55.834 160.752 55.8492 160.743 55.8623C160.498 56.3562 159.936 57.0079 159.055 57.8174C158.412 58.3922 157.704 58.8884 156.944 59.2957C155.761 60.0227 154.455 60.5245 153.09 60.7758C151.472 61.0227 150.136 60.9347 149.08 60.5117C148.435 60.2523 147.908 59.7637 147.601 59.1397C147.281 58.4836 147.17 57.7446 147.284 57.0234C147.453 56.2454 147.738 55.4973 148.129 54.8042C148.763 53.8541 149.256 53.2207 149.608 52.904C149.641 52.904 149.674 52.9139 149.702 52.9325C149.73 52.9511 149.752 52.9776 149.766 53.0086C149.659 53.1801 149.467 53.5368 149.185 54.065C148.939 54.5932 148.745 54.9985 148.604 55.2809C148.475 55.6432 148.37 56.0132 148.288 56.3888C148.153 56.7801 148.081 57.1907 148.076 57.6047C148.08 58.2349 148.325 58.8394 148.761 59.294C149.205 59.6919 149.755 59.9497 150.345 60.0349C150.976 60.1042 151.611 60.1214 152.245 60.0863C152.869 60.0172 153.488 59.9107 154.099 59.7673C155.085 59.5204 156.193 58.9922 157.424 58.1827C157.635 58.0421 158.163 57.6368 159.007 56.9668C159.265 56.751 159.511 56.522 159.746 56.2808C159.99 56.05 160.253 55.8395 160.532 55.6514ZM150.874 51.321C150.521 51.3919 150.31 51.2684 150.24 50.9506C150.136 50.7396 150.206 50.5098 150.451 50.2646C150.622 50.0931 150.768 50.0005 150.874 50.0005C150.968 49.9629 151.07 49.9479 151.171 49.9569C151.272 49.9658 151.369 49.9984 151.455 50.0519C151.7 50.2646 151.736 50.5287 151.56 50.8443C151.311 51.1632 151.082 51.3227 150.874 51.3227V51.321ZM174.284 56.3905C174.333 56.3729 174.387 56.3739 174.436 56.3935C174.485 56.4131 174.524 56.4499 174.548 56.4969C174.564 56.5092 174.577 56.5251 174.586 56.5434C174.595 56.5617 174.6 56.5819 174.6 56.6023C174.6 56.6228 174.595 56.643 174.586 56.6613C174.577 56.6796 174.564 56.6955 174.548 56.7078C173.879 57.483 172.824 58.2227 171.381 58.927C170.214 59.5005 168.995 59.96 167.739 60.299C165.947 60.8494 164.068 61.0639 162.198 60.9318C160.261 60.8609 159.135 60.1921 158.818 58.9253C158.397 57.1291 159.558 55.6325 162.302 54.4354C163.745 53.8706 164.836 53.8003 165.575 54.2245C165.962 54.5401 166.103 54.8762 165.997 55.2278C165.908 55.6128 165.705 55.9622 165.416 56.231C165.41 56.2395 165.402 56.2465 165.393 56.2513C165.384 56.2561 165.374 56.2586 165.364 56.2586C165.353 56.2586 165.343 56.2561 165.334 56.2513C165.325 56.2465 165.317 56.2395 165.311 56.231C165.275 56.1967 165.275 56.1436 165.311 56.0733C165.499 55.8502 165.611 55.5723 165.628 55.2809C165.663 54.9974 165.487 54.7859 165.101 54.6464C164.713 54.5401 164.15 54.5926 163.411 54.8042C162.371 55.1515 161.405 55.6888 160.561 56.3888C159.822 57.1297 159.488 57.8517 159.559 58.5548C159.593 59.0831 159.874 59.4884 160.402 59.7708C161.107 60.1218 162.268 60.2624 163.886 60.1927C165.691 60.0922 167.47 59.7181 169.164 59.0831C170.064 58.7242 170.944 58.319 171.802 57.8689C172.013 57.7625 172.4 57.5344 172.964 57.1829C173.382 56.8834 173.823 56.6189 174.284 56.3922V56.3905ZM187.119 54.7013C187.146 54.7013 187.174 54.7067 187.199 54.7173C187.225 54.7279 187.248 54.7435 187.268 54.763C187.287 54.7826 187.303 54.8059 187.313 54.8315C187.324 54.8571 187.329 54.8845 187.329 54.9122C187.329 54.9399 187.324 54.9673 187.313 54.9929C187.303 55.0185 187.287 55.0418 187.268 55.0614C187.248 55.081 187.225 55.0965 187.199 55.1071C187.174 55.1177 187.146 55.1232 187.119 55.1232C184.058 55.3701 182.23 55.5816 181.635 55.7577C179.997 56.2193 178.432 56.9122 176.99 57.8157C176.252 58.273 175.759 58.5897 175.512 58.7658C175.584 59.311 175.566 59.8642 175.459 60.4036C175.249 61.954 174.651 63.0104 173.665 63.5729C172.96 63.9262 172.38 63.9085 171.924 63.5197C171.537 63.1344 171.431 62.6239 171.607 61.9883C171.854 61.0027 172.698 59.964 174.14 58.8721C174.323 58.7019 174.517 58.5433 174.721 58.3971C174.614 56.2842 174.614 54.9985 174.721 54.5401C174.975 53.3652 175.583 52.2964 176.462 51.4771C177.318 50.6285 178.399 50.0419 179.577 49.7861C181.264 49.4351 182.267 49.7872 182.584 50.8425C182.901 51.7572 182.531 52.5672 181.476 53.2727C181.433 53.226 181.397 53.1727 181.371 53.1149C181.793 52.4804 182.021 51.9344 182.057 51.4771C182.057 50.7717 181.564 50.4195 180.58 50.4207C179.864 50.4471 179.162 50.6206 178.516 50.9304C177.87 51.2402 177.295 51.6796 176.827 52.2214C176.362 52.6952 175.997 53.257 175.752 53.874C175.507 54.4909 175.388 55.1506 175.401 55.8143C175.371 56.5007 175.389 57.1883 175.454 57.8723C176.406 57.2732 177.251 56.7798 177.989 56.3922C180.769 54.8558 183.973 54.2631 187.119 54.703V54.7013ZM173.449 62.7291C174.293 62.0603 174.716 60.9335 174.716 59.3489C174.268 59.6887 173.845 60.0594 173.449 60.4585C172.851 61.1273 172.499 61.7081 172.394 62.2009C172.253 62.5885 172.323 62.8526 172.604 62.9932C172.816 63.0653 173.097 62.9778 173.449 62.7308V62.7291Z" fill="#FFFDFA"/>
</g>
<defs>
<clipPath id="clip0_81_6420">
<rect width="251" height="64" fill="white"/>
</clipPath>
</defs>
</svg>
