<svg width="24" height="24" viewBox="0 0 24 24" fill="none" xmlns="http://www.w3.org/2000/svg">
<path d="M16.6 20.463C16.356 20.4628 16.1158 20.403 15.9 20.289L12.234 18.362C12.1625 18.3245 12.0829 18.3049 12.002 18.3049C11.9212 18.3049 11.8416 18.3245 11.7701 18.362L8.10005 20.289C7.85231 20.4194 7.57304 20.4778 7.29381 20.4577C7.01458 20.4376 6.74654 20.3398 6.52003 20.1753C6.29351 20.0108 6.11755 19.7862 6.01205 19.5269C5.90655 19.2676 5.87572 18.9839 5.92305 18.708L6.62305 14.626C6.63676 14.5462 6.63091 14.4643 6.606 14.3874C6.58109 14.3104 6.53787 14.2406 6.48005 14.184L3.51605 11.293C3.31548 11.0976 3.1736 10.8499 3.10648 10.5781C3.03935 10.3062 3.04967 10.021 3.13625 9.75474C3.22283 9.48844 3.38222 9.2517 3.59638 9.0713C3.81054 8.89091 4.07092 8.77405 4.34805 8.73398L8.44805 8.13398C8.52814 8.1223 8.6042 8.09136 8.66969 8.04381C8.73518 7.99625 8.78815 7.93351 8.82405 7.86098L10.657 4.14698C10.7809 3.89604 10.9726 3.68477 11.2102 3.53705C11.4479 3.38932 11.7222 3.31104 12.002 3.31104C12.2819 3.31104 12.5562 3.38932 12.7939 3.53705C13.0315 3.68477 13.2232 3.89604 13.347 4.14698L15.18 7.86098C15.2158 7.9337 15.2687 7.99664 15.3342 8.04437C15.3997 8.0921 15.4759 8.1232 15.556 8.13498L19.656 8.73498C19.9332 8.77505 20.1936 8.8919 20.4077 9.0723C20.6219 9.2527 20.7813 9.48944 20.8679 9.75574C20.9544 10.022 20.9647 10.3072 20.8976 10.5791C20.8305 10.8509 20.6886 11.0986 20.4881 11.294L17.5231 14.185C17.4651 14.2415 17.4216 14.3112 17.3966 14.3882C17.3715 14.4652 17.3655 14.5471 17.379 14.627L18.0791 18.709C18.1161 18.9244 18.1056 19.1452 18.0483 19.3561C17.991 19.567 17.8883 19.7629 17.7474 19.9299C17.6066 20.097 17.4309 20.2313 17.2327 20.3233C17.0345 20.4154 16.8186 20.4631 16.6 20.463ZM12.7 17.477L16.364 19.4C16.4466 19.4433 16.5396 19.4626 16.6326 19.4558C16.7256 19.449 16.8148 19.4164 16.8902 19.3616C16.9656 19.3068 17.0241 19.232 17.0593 19.1456C17.0944 19.0593 17.1047 18.9649 17.0891 18.873L16.389 14.791C16.348 14.5512 16.3658 14.305 16.4411 14.0736C16.5163 13.8423 16.6467 13.6327 16.821 13.463L19.786 10.573C19.8529 10.5079 19.9002 10.4253 19.9226 10.3348C19.945 10.2442 19.9416 10.1491 19.9127 10.0604C19.8839 9.9716 19.8308 9.89268 19.7595 9.83253C19.6882 9.77237 19.6014 9.73339 19.5091 9.71998L15.409 9.11998C15.1682 9.08505 14.9395 8.99206 14.7427 8.84903C14.5458 8.706 14.3867 8.51722 14.279 8.29898L12.449 4.59398C12.4042 4.51405 12.3389 4.44751 12.2598 4.4012C12.1807 4.35489 12.0907 4.33048 11.999 4.33048C11.9074 4.33048 11.8174 4.35489 11.7383 4.4012C11.6592 4.44751 11.5939 4.51405 11.549 4.59398L9.71905 8.30798C9.61129 8.52603 9.45213 8.71461 9.25527 8.85746C9.05841 9.00031 8.82977 9.09315 8.58905 9.12798L4.48905 9.72798C4.3967 9.74139 4.30995 9.78037 4.2386 9.84053C4.16726 9.90068 4.11417 9.9796 4.08535 10.0684C4.05653 10.1571 4.05312 10.2522 4.07551 10.3428C4.0979 10.4333 4.1452 10.5159 4.21205 10.581L7.18005 13.468C7.35479 13.6382 7.48537 13.8485 7.56048 14.0806C7.63558 14.3127 7.65294 14.5596 7.61105 14.8L6.91105 18.882C6.89523 18.974 6.90549 19.0686 6.94067 19.1551C6.97584 19.2416 7.03454 19.3165 7.1101 19.3713C7.18566 19.4262 7.27506 19.4588 7.3682 19.4654C7.46133 19.4721 7.55446 19.4525 7.63705 19.409L11.3 17.477C11.5158 17.3631 11.7561 17.3036 12 17.3036C12.244 17.3036 12.4843 17.3631 12.7 17.477Z" fill="#78020E"/>
</svg>
