<svg width="44" height="44" viewBox="0 0 44 44" fill="none" xmlns="http://www.w3.org/2000/svg">
<rect x="0.5" y="0.5" width="43" height="43" rx="21.5" stroke="#FFFDFA" stroke-opacity="0.8"/>
<path d="M31.4714 13.337C31.2661 13.1683 31.0185 13.0578 30.7549 13.0173C30.4913 12.9768 30.2215 13.0078 29.9743 13.1069L12.9109 19.9264C12.6352 20.0386 12.4005 20.2312 12.2378 20.4785C12.0752 20.7259 11.9925 21.0163 12.0005 21.3114C12.0086 21.6064 12.1071 21.892 12.283 22.1303C12.4588 22.3686 12.7038 22.5483 12.9852 22.6456L16.667 23.9108L18.6622 30.4409C18.666 30.4541 18.6784 30.4626 18.6841 30.4748C18.7049 30.5268 18.7349 30.5747 18.7727 30.6163C18.8307 30.6797 18.9051 30.7263 18.9879 30.7511C18.9974 30.7549 19.0041 30.7633 19.0136 30.7652H19.0193L19.0222 30.7662C19.0959 30.7818 19.1724 30.7779 19.2441 30.7549L19.2679 30.7501C19.3366 30.7261 19.3989 30.6867 19.4498 30.6351C19.4555 30.6285 19.465 30.6276 19.4708 30.6219L22.3402 27.4861L26.5277 30.6964C26.782 30.8935 27.0953 31 27.4181 31C28.1172 31 28.72 30.5154 28.8638 29.8394L31.9704 14.7371C32.0234 14.4807 32.005 14.2149 31.9171 13.9681C31.8292 13.7213 31.6751 13.5028 31.4714 13.336M19.7031 25.1507L19.0298 28.3912L17.6251 23.792L24.5916 20.1998L19.8326 24.9121C19.7668 24.9774 19.7218 25.0603 19.7031 25.1507ZM27.9305 29.6499C27.9126 29.7354 27.8728 29.8149 27.815 29.8807C27.7571 29.9466 27.6831 29.9967 27.6 30.0261C27.5189 30.0565 27.4313 30.0657 27.3456 30.0528C27.2598 30.0399 27.1789 30.0054 27.1105 29.9525L22.5745 26.4744C22.4797 26.4019 22.3607 26.3675 22.2414 26.378C22.1221 26.3885 22.0111 26.4431 21.9307 26.531L19.9336 28.7099L20.606 25.4788L27.4524 18.6998C27.5326 18.6202 27.5814 18.5148 27.59 18.4027C27.5986 18.2905 27.5664 18.1791 27.4993 18.0884C27.4321 17.9977 27.3345 17.9337 27.2239 17.908C27.1133 17.8824 26.9971 17.8967 26.8963 17.9484L17.027 23.0378L13.2966 21.7536C13.198 21.7208 13.1121 21.6586 13.0505 21.5756C12.989 21.4926 12.9549 21.3927 12.9528 21.2898C12.9478 21.1857 12.9758 21.0827 13.0328 20.9951C13.0898 20.9075 13.1731 20.8398 13.2709 20.8014L30.3314 13.9819C30.4189 13.9455 30.5149 13.9339 30.6087 13.9482C30.7025 13.9625 30.7904 14.0022 30.8628 14.0629C30.9348 14.1202 30.9893 14.1963 31.0199 14.2826C31.0505 14.369 31.0562 14.462 31.0361 14.5513L27.9305 29.6499Z" fill="#FFFDFA"/>
</svg>
