<svg width="44" height="44" viewBox="0 0 44 44" fill="none" xmlns="http://www.w3.org/2000/svg">
<rect x="0.5" y="0.5" width="43" height="43" rx="21.5" stroke="#FFFDFA" stroke-opacity="0.8"/>
<g clip-path="url(#clip0_81_6426)">
<path d="M28.6094 14.7543C28.1629 14.343 26.3559 13.0317 22.327 13.0141C22.327 13.0141 17.5774 12.7293 15.2641 14.8528C13.9774 16.1395 13.5239 18.0274 13.4747 20.3653C13.4254 22.7031 13.3657 27.0836 17.5879 28.2719H17.5915L17.5879 30.086C17.5879 30.086 17.5598 30.8207 18.045 30.9684C18.6286 31.1512 18.9731 30.5922 19.5321 29.991C19.8379 29.6606 20.2598 29.1754 20.5797 28.8063C23.4696 29.0488 25.6879 28.4934 25.9411 28.4125C26.5247 28.2227 29.8258 27.8008 30.3602 23.4203C30.9157 18.8992 30.093 16.0445 28.6094 14.7543ZM29.0981 23.0899C28.6446 26.7461 25.9692 26.9781 25.477 27.1363C25.2661 27.2031 23.3149 27.6883 20.8645 27.5301C20.8645 27.5301 19.0364 29.7344 18.4668 30.3074C18.2805 30.4938 18.0766 30.4762 18.0801 30.107C18.0801 29.8645 18.0942 27.0942 18.0942 27.0942C18.0907 27.0942 18.0907 27.0942 18.0942 27.0942C14.5153 26.1028 14.7262 22.3727 14.7649 20.4215C14.8036 18.4703 15.1727 16.8707 16.2625 15.7949C18.2208 14.0195 22.2532 14.2832 22.2532 14.2832C25.6598 14.2973 27.2911 15.3238 27.6708 15.6684C28.9258 16.7442 29.5657 19.3176 29.0981 23.0899ZM24.2114 20.2492C24.2254 20.5516 23.7719 20.5727 23.7579 20.2703C23.7192 19.4969 23.3571 19.1207 22.6118 19.0785C22.3094 19.061 22.3375 18.6074 22.6364 18.625C23.6172 18.6778 24.1622 19.2403 24.2114 20.2492ZM24.925 20.6465C24.9602 19.1559 24.0286 17.9887 22.2602 17.8586C21.9614 17.8375 21.993 17.384 22.2918 17.4051C24.3309 17.5528 25.4172 18.9555 25.3786 20.657C25.375 20.9594 24.918 20.9453 24.925 20.6465ZM26.5774 21.1176C26.5809 21.4199 26.1239 21.4235 26.1239 21.1211C26.1028 18.2559 24.1938 16.6949 21.877 16.6774C21.5782 16.6738 21.5782 16.2238 21.877 16.2238C24.468 16.2414 26.5528 18.0309 26.5774 21.1176ZM26.1801 24.5664V24.5735C25.8004 25.2414 25.0903 25.9797 24.359 25.7442L24.352 25.7336C23.6102 25.5262 21.8629 24.6262 20.759 23.7473C20.1895 23.2973 19.6692 22.7664 19.2684 22.2567C18.9063 21.8031 18.5407 21.2653 18.1856 20.6184C17.4368 19.2649 17.2715 18.6602 17.2715 18.6602C17.036 17.9289 17.7708 17.2188 18.4422 16.8391H18.4493C18.7727 16.6703 19.0821 16.7266 19.2895 16.9762C19.2895 16.9762 19.7254 17.4965 19.9118 17.7531C20.0875 17.9922 20.3231 18.3754 20.4461 18.5899C20.6606 18.9731 20.527 19.3633 20.3161 19.525L19.8942 19.8625C19.6797 20.0348 19.7079 20.3547 19.7079 20.3547C19.7079 20.3547 20.3336 22.7207 22.6715 23.3184C22.6715 23.3184 22.9915 23.3465 23.1637 23.132L23.5012 22.7102C23.6629 22.4992 24.0532 22.3656 24.4364 22.5801C24.9532 22.8719 25.6106 23.3254 26.0465 23.7367C26.2926 23.9371 26.3489 24.243 26.1801 24.5664Z" fill="#FEF9F3"/>
</g>
<defs>
<clipPath id="clip0_81_6426">
<rect width="18" height="18" fill="white" transform="translate(13 13)"/>
</clipPath>
</defs>
</svg>
